<mxfile host="app.diagrams.net" agent="Mozilla/5.0 (Windows NT 10.0; Win64; x64) AppleWebKit/537.36 (KHTML, like Gecko) Chrome/126.0.0.0 Safari/537.36" version="24.7.5">
  <diagram name="PÃ¡gina-1" id="ASKJ_lCl_764IsuxJBaY">
    <mxGraphModel dx="1050" dy="1772" grid="1" gridSize="10" guides="1" tooltips="1" connect="1" arrows="1" fold="1" page="1" pageScale="1" pageWidth="827" pageHeight="1169" math="0" shadow="0">
      <root>
        <mxCell id="0" />
        <mxCell id="1" parent="0" />
        <mxCell id="ba4cuiU224etLzInKjYj-1" value="&lt;p style=&quot;margin:0px;margin-top:6px;text-align:center;&quot;&gt;&lt;b&gt;Product&lt;/b&gt;&lt;/p&gt;&lt;hr size=&quot;1&quot; style=&quot;border-style:solid;&quot;&gt;&lt;p style=&quot;margin:0px;margin-left:8px;&quot;&gt;- id: String&lt;/p&gt;&lt;p style=&quot;margin:0px;margin-left:8px;&quot;&gt;- name: String&lt;br&gt;- description: String&lt;/p&gt;&lt;p style=&quot;margin:0px;margin-left:8px;&quot;&gt;- price: bigdecimal&lt;/p&gt;&lt;p style=&quot;margin:0px;margin-left:8px;&quot;&gt;- urlImage: String&lt;/p&gt;&lt;p style=&quot;margin:0px;margin-left:8px;&quot;&gt;- soldOut: boolean&lt;/p&gt;&lt;p style=&quot;margin:0px;margin-left:8px;&quot;&gt;- createAt: Date&lt;/p&gt;" style="align=left;overflow=fill;html=1;dropTarget=0;whiteSpace=wrap;" parent="1" vertex="1">
          <mxGeometry x="160" y="430" width="170" height="140" as="geometry" />
        </mxCell>
        <mxCell id="ba4cuiU224etLzInKjYj-2" value="" style="shape=component;jettyWidth=8;jettyHeight=4;" parent="ba4cuiU224etLzInKjYj-1" vertex="1">
          <mxGeometry x="1" width="20" height="20" relative="1" as="geometry">
            <mxPoint x="-24" y="4" as="offset" />
          </mxGeometry>
        </mxCell>
        <mxCell id="ba4cuiU224etLzInKjYj-5" style="edgeStyle=orthogonalEdgeStyle;rounded=0;orthogonalLoop=1;jettySize=auto;html=1;entryX=0.5;entryY=0;entryDx=0;entryDy=0;" parent="1" source="ba4cuiU224etLzInKjYj-3" target="ba4cuiU224etLzInKjYj-1" edge="1">
          <mxGeometry relative="1" as="geometry" />
        </mxCell>
        <mxCell id="ba4cuiU224etLzInKjYj-6" value="&amp;nbsp; &amp;nbsp;n" style="edgeLabel;html=1;align=center;verticalAlign=middle;resizable=0;points=[];" parent="ba4cuiU224etLzInKjYj-5" vertex="1" connectable="0">
          <mxGeometry x="0.6952" y="2" relative="1" as="geometry">
            <mxPoint x="13" as="offset" />
          </mxGeometry>
        </mxCell>
        <mxCell id="ba4cuiU224etLzInKjYj-7" value="1" style="edgeLabel;html=1;align=center;verticalAlign=middle;resizable=0;points=[];" parent="ba4cuiU224etLzInKjYj-5" vertex="1" connectable="0">
          <mxGeometry x="-0.819" relative="1" as="geometry">
            <mxPoint x="15" as="offset" />
          </mxGeometry>
        </mxCell>
        <mxCell id="ba4cuiU224etLzInKjYj-3" value="&lt;p style=&quot;margin:0px;margin-top:6px;text-align:center;&quot;&gt;&lt;b&gt;Category&lt;/b&gt;&lt;/p&gt;&lt;hr size=&quot;1&quot; style=&quot;border-style:solid;&quot;&gt;&lt;p style=&quot;margin:0px;margin-left:8px;&quot;&gt;- id: String&lt;/p&gt;&lt;p style=&quot;margin:0px;margin-left:8px;&quot;&gt;- name: String&lt;br&gt;- createAt: Date&lt;/p&gt;" style="align=left;overflow=fill;html=1;dropTarget=0;whiteSpace=wrap;" parent="1" vertex="1">
          <mxGeometry x="40" y="200" width="170" height="140" as="geometry" />
        </mxCell>
        <mxCell id="ba4cuiU224etLzInKjYj-4" value="" style="shape=component;jettyWidth=8;jettyHeight=4;" parent="ba4cuiU224etLzInKjYj-3" vertex="1">
          <mxGeometry x="1" width="20" height="20" relative="1" as="geometry">
            <mxPoint x="-24" y="4" as="offset" />
          </mxGeometry>
        </mxCell>
        <mxCell id="ba4cuiU224etLzInKjYj-10" style="edgeStyle=orthogonalEdgeStyle;rounded=0;orthogonalLoop=1;jettySize=auto;html=1;entryX=0.5;entryY=0;entryDx=0;entryDy=0;" parent="1" source="ba4cuiU224etLzInKjYj-8" target="ba4cuiU224etLzInKjYj-3" edge="1">
          <mxGeometry relative="1" as="geometry" />
        </mxCell>
        <mxCell id="ba4cuiU224etLzInKjYj-11" value="n" style="edgeLabel;html=1;align=center;verticalAlign=middle;resizable=0;points=[];" parent="ba4cuiU224etLzInKjYj-10" vertex="1" connectable="0">
          <mxGeometry x="0.7949" y="2" relative="1" as="geometry">
            <mxPoint x="13" y="-22" as="offset" />
          </mxGeometry>
        </mxCell>
        <mxCell id="ba4cuiU224etLzInKjYj-12" value="1" style="edgeLabel;html=1;align=center;verticalAlign=middle;resizable=0;points=[];" parent="ba4cuiU224etLzInKjYj-10" vertex="1" connectable="0">
          <mxGeometry x="-0.7744" y="-2" relative="1" as="geometry">
            <mxPoint y="-18" as="offset" />
          </mxGeometry>
        </mxCell>
        <mxCell id="ba4cuiU224etLzInKjYj-13" style="edgeStyle=orthogonalEdgeStyle;rounded=0;orthogonalLoop=1;jettySize=auto;html=1;entryX=1;entryY=0.5;entryDx=0;entryDy=0;exitX=0.5;exitY=1;exitDx=0;exitDy=0;" parent="1" source="ba4cuiU224etLzInKjYj-8" target="ba4cuiU224etLzInKjYj-1" edge="1">
          <mxGeometry relative="1" as="geometry" />
        </mxCell>
        <mxCell id="ba4cuiU224etLzInKjYj-14" value="n" style="edgeLabel;html=1;align=center;verticalAlign=middle;resizable=0;points=[];" parent="ba4cuiU224etLzInKjYj-13" vertex="1" connectable="0">
          <mxGeometry x="0.7944" relative="1" as="geometry">
            <mxPoint x="20" y="20" as="offset" />
          </mxGeometry>
        </mxCell>
        <mxCell id="ba4cuiU224etLzInKjYj-15" value="1" style="edgeLabel;html=1;align=center;verticalAlign=middle;resizable=0;points=[];" parent="ba4cuiU224etLzInKjYj-13" vertex="1" connectable="0">
          <mxGeometry x="-0.92" y="4" relative="1" as="geometry">
            <mxPoint x="11" as="offset" />
          </mxGeometry>
        </mxCell>
        <mxCell id="ba4cuiU224etLzInKjYj-8" value="&lt;p style=&quot;margin:0px;margin-top:6px;text-align:center;&quot;&gt;&lt;b&gt;Restaurant&lt;/b&gt;&lt;br&gt;&lt;/p&gt;&lt;hr size=&quot;1&quot; style=&quot;border-style:solid;&quot;&gt;&lt;p style=&quot;margin:0px;margin-left:8px;&quot;&gt;- id: String&lt;/p&gt;&lt;p style=&quot;margin:0px;margin-left:8px;&quot;&gt;- name: String&lt;/p&gt;&lt;p style=&quot;margin:0px;margin-left:8px;&quot;&gt;- createAt: Date&lt;/p&gt;&lt;p style=&quot;margin:0px;margin-left:8px;&quot;&gt;&lt;br&gt;&lt;/p&gt;" style="align=left;overflow=fill;html=1;dropTarget=0;whiteSpace=wrap;" parent="1" vertex="1">
          <mxGeometry x="370" y="110" width="170" height="140" as="geometry" />
        </mxCell>
        <mxCell id="ba4cuiU224etLzInKjYj-9" value="" style="shape=component;jettyWidth=8;jettyHeight=4;" parent="ba4cuiU224etLzInKjYj-8" vertex="1">
          <mxGeometry x="1" width="20" height="20" relative="1" as="geometry">
            <mxPoint x="-24" y="4" as="offset" />
          </mxGeometry>
        </mxCell>
        <mxCell id="ba4cuiU224etLzInKjYj-18" style="edgeStyle=orthogonalEdgeStyle;rounded=0;orthogonalLoop=1;jettySize=auto;html=1;entryX=0.5;entryY=0;entryDx=0;entryDy=0;" parent="1" source="ba4cuiU224etLzInKjYj-16" target="ba4cuiU224etLzInKjYj-8" edge="1">
          <mxGeometry relative="1" as="geometry" />
        </mxCell>
        <mxCell id="ba4cuiU224etLzInKjYj-19" value="1" style="edgeLabel;html=1;align=center;verticalAlign=middle;resizable=0;points=[];" parent="ba4cuiU224etLzInKjYj-18" vertex="1" connectable="0">
          <mxGeometry x="-0.8077" y="1" relative="1" as="geometry">
            <mxPoint x="14" y="21" as="offset" />
          </mxGeometry>
        </mxCell>
        <mxCell id="ba4cuiU224etLzInKjYj-20" value="N" style="edgeLabel;html=1;align=center;verticalAlign=middle;resizable=0;points=[];" parent="ba4cuiU224etLzInKjYj-18" vertex="1" connectable="0">
          <mxGeometry x="0.7231" y="-4" relative="1" as="geometry">
            <mxPoint x="-11" y="-4" as="offset" />
          </mxGeometry>
        </mxCell>
        <mxCell id="ba4cuiU224etLzInKjYj-16" value="&lt;p style=&quot;margin:0px;margin-top:6px;text-align:center;&quot;&gt;&lt;b&gt;UserAdmin&lt;/b&gt;&lt;/p&gt;&lt;hr size=&quot;1&quot; style=&quot;border-style:solid;&quot;&gt;&lt;p style=&quot;margin:0px;margin-left:8px;&quot;&gt;- cnpj: String&lt;/p&gt;" style="align=left;overflow=fill;html=1;dropTarget=0;whiteSpace=wrap;" parent="1" vertex="1">
          <mxGeometry x="160" y="-130" width="170" height="140" as="geometry" />
        </mxCell>
        <mxCell id="ba4cuiU224etLzInKjYj-17" value="" style="shape=component;jettyWidth=8;jettyHeight=4;" parent="ba4cuiU224etLzInKjYj-16" vertex="1">
          <mxGeometry x="1" width="20" height="20" relative="1" as="geometry">
            <mxPoint x="-24" y="4" as="offset" />
          </mxGeometry>
        </mxCell>
        <mxCell id="ba4cuiU224etLzInKjYj-21" value="Extends" style="endArrow=block;endSize=16;endFill=0;html=1;rounded=0;exitX=0.5;exitY=0;exitDx=0;exitDy=0;entryX=0;entryY=0.5;entryDx=0;entryDy=0;" parent="1" source="ba4cuiU224etLzInKjYj-16" target="ba4cuiU224etLzInKjYj-22" edge="1">
          <mxGeometry width="160" relative="1" as="geometry">
            <mxPoint x="254" y="-190" as="sourcePoint" />
            <mxPoint x="346" y="-280" as="targetPoint" />
          </mxGeometry>
        </mxCell>
        <mxCell id="ba4cuiU224etLzInKjYj-22" value="&lt;p style=&quot;margin:0px;margin-top:6px;text-align:center;&quot;&gt;&lt;b&gt;User&lt;/b&gt;&lt;/p&gt;&lt;hr size=&quot;1&quot; style=&quot;border-style:solid;&quot;&gt;&lt;p style=&quot;margin:0px;margin-left:8px;&quot;&gt;- id: String&lt;/p&gt;&lt;p style=&quot;margin:0px;margin-left:8px;&quot;&gt;- name: String&lt;/p&gt;&lt;p style=&quot;margin:0px;margin-left:8px;&quot;&gt;- dataNascimento: Date&lt;/p&gt;&lt;p style=&quot;margin:0px;margin-left:8px;&quot;&gt;- email: String&lt;/p&gt;&lt;p style=&quot;margin:0px;margin-left:8px;&quot;&gt;- password: String&lt;/p&gt;&lt;p style=&quot;margin:0px;margin-left:8px;&quot;&gt;- createAt: Date&lt;/p&gt;" style="align=left;overflow=fill;html=1;dropTarget=0;whiteSpace=wrap;" parent="1" vertex="1">
          <mxGeometry x="510" y="-330" width="170" height="160" as="geometry" />
        </mxCell>
        <mxCell id="ba4cuiU224etLzInKjYj-23" value="" style="shape=component;jettyWidth=8;jettyHeight=4;" parent="ba4cuiU224etLzInKjYj-22" vertex="1">
          <mxGeometry x="1" width="20" height="20" relative="1" as="geometry">
            <mxPoint x="-24" y="4" as="offset" />
          </mxGeometry>
        </mxCell>
      </root>
    </mxGraphModel>
  </diagram>
</mxfile>
